<mxfile host="app.diagrams.net" modified="2022-10-17T10:11:21.013Z" agent="5.0 (Macintosh; Intel Mac OS X 10_15_7) AppleWebKit/537.36 (KHTML, like Gecko) Chrome/106.0.0.0 Safari/537.36" etag="CZMHaA8e1Qy7lVNPtOUO" version="20.4.1" type="github">
  <diagram id="kttOxG31RimME8Mo8_W9" name="Pagina-1">
    <mxGraphModel dx="706" dy="708" grid="0" gridSize="10" guides="1" tooltips="1" connect="1" arrows="1" fold="1" page="1" pageScale="1" pageWidth="827" pageHeight="1169" math="0" shadow="0">
      <root>
        <mxCell id="0" />
        <mxCell id="1" parent="0" />
        <mxCell id="hrEoVn3MDDSSl_XmKIdN-11" value="" style="ellipse;whiteSpace=wrap;html=1;rounded=0;" vertex="1" parent="1">
          <mxGeometry x="310" y="190" width="120" height="80" as="geometry" />
        </mxCell>
        <mxCell id="hrEoVn3MDDSSl_XmKIdN-12" value="" style="endArrow=classic;html=1;rounded=0;entryX=0;entryY=0.375;entryDx=0;entryDy=0;entryPerimeter=0;" edge="1" parent="1" source="hrEoVn3MDDSSl_XmKIdN-11" target="hrEoVn3MDDSSl_XmKIdN-13">
          <mxGeometry width="50" height="50" relative="1" as="geometry">
            <mxPoint x="440" y="260" as="sourcePoint" />
            <mxPoint x="530" y="330" as="targetPoint" />
            <Array as="points">
              <mxPoint x="490" y="300" />
            </Array>
          </mxGeometry>
        </mxCell>
        <mxCell id="hrEoVn3MDDSSl_XmKIdN-13" value="" style="ellipse;whiteSpace=wrap;html=1;rounded=0;" vertex="1" parent="1">
          <mxGeometry x="530" y="290" width="130" height="80" as="geometry" />
        </mxCell>
        <mxCell id="hrEoVn3MDDSSl_XmKIdN-14" value="" style="endArrow=classic;html=1;rounded=0;exitX=0.346;exitY=1.013;exitDx=0;exitDy=0;exitPerimeter=0;" edge="1" parent="1" source="hrEoVn3MDDSSl_XmKIdN-13">
          <mxGeometry width="50" height="50" relative="1" as="geometry">
            <mxPoint x="570" y="430" as="sourcePoint" />
            <mxPoint x="530" y="420" as="targetPoint" />
          </mxGeometry>
        </mxCell>
        <mxCell id="hrEoVn3MDDSSl_XmKIdN-15" value="" style="ellipse;whiteSpace=wrap;html=1;rounded=0;" vertex="1" parent="1">
          <mxGeometry x="450" y="420" width="120" height="80" as="geometry" />
        </mxCell>
        <mxCell id="hrEoVn3MDDSSl_XmKIdN-16" value="" style="endArrow=classic;html=1;rounded=0;" edge="1" parent="1" source="hrEoVn3MDDSSl_XmKIdN-15">
          <mxGeometry width="50" height="50" relative="1" as="geometry">
            <mxPoint x="390" y="490" as="sourcePoint" />
            <mxPoint x="320" y="460" as="targetPoint" />
          </mxGeometry>
        </mxCell>
        <mxCell id="hrEoVn3MDDSSl_XmKIdN-17" value="" style="ellipse;whiteSpace=wrap;html=1;rounded=0;" vertex="1" parent="1">
          <mxGeometry x="200" y="420" width="120" height="80" as="geometry" />
        </mxCell>
        <mxCell id="hrEoVn3MDDSSl_XmKIdN-18" value="" style="endArrow=classic;html=1;rounded=0;exitX=0.5;exitY=0;exitDx=0;exitDy=0;" edge="1" parent="1" source="hrEoVn3MDDSSl_XmKIdN-17">
          <mxGeometry width="50" height="50" relative="1" as="geometry">
            <mxPoint x="230" y="420" as="sourcePoint" />
            <mxPoint x="170" y="340" as="targetPoint" />
          </mxGeometry>
        </mxCell>
        <mxCell id="hrEoVn3MDDSSl_XmKIdN-19" value="" style="ellipse;whiteSpace=wrap;html=1;rounded=0;" vertex="1" parent="1">
          <mxGeometry x="100" y="250" width="120" height="80" as="geometry" />
        </mxCell>
        <mxCell id="hrEoVn3MDDSSl_XmKIdN-20" value="" style="endArrow=classic;html=1;rounded=0;exitX=1;exitY=0;exitDx=0;exitDy=0;entryX=0.083;entryY=0.625;entryDx=0;entryDy=0;entryPerimeter=0;" edge="1" parent="1" source="hrEoVn3MDDSSl_XmKIdN-19" target="hrEoVn3MDDSSl_XmKIdN-11">
          <mxGeometry width="50" height="50" relative="1" as="geometry">
            <mxPoint x="420" y="370" as="sourcePoint" />
            <mxPoint x="470" y="320" as="targetPoint" />
            <Array as="points">
              <mxPoint x="250" y="250" />
            </Array>
          </mxGeometry>
        </mxCell>
        <mxCell id="hrEoVn3MDDSSl_XmKIdN-21" value="" style="endArrow=classic;html=1;rounded=0;exitX=0.983;exitY=0.375;exitDx=0;exitDy=0;exitPerimeter=0;" edge="1" parent="1" source="hrEoVn3MDDSSl_XmKIdN-11">
          <mxGeometry width="50" height="50" relative="1" as="geometry">
            <mxPoint x="520" y="520" as="sourcePoint" />
            <mxPoint x="560" y="180" as="targetPoint" />
          </mxGeometry>
        </mxCell>
        <mxCell id="hrEoVn3MDDSSl_XmKIdN-22" value="" style="ellipse;whiteSpace=wrap;html=1;rounded=0;" vertex="1" parent="1">
          <mxGeometry x="560" y="140" width="120" height="80" as="geometry" />
        </mxCell>
        <mxCell id="hrEoVn3MDDSSl_XmKIdN-23" value="" style="endArrow=classic;html=1;rounded=0;exitX=0.5;exitY=1;exitDx=0;exitDy=0;entryX=0.5;entryY=0;entryDx=0;entryDy=0;" edge="1" parent="1" source="hrEoVn3MDDSSl_XmKIdN-22" target="hrEoVn3MDDSSl_XmKIdN-13">
          <mxGeometry width="50" height="50" relative="1" as="geometry">
            <mxPoint x="420" y="370" as="sourcePoint" />
            <mxPoint x="470" y="320" as="targetPoint" />
          </mxGeometry>
        </mxCell>
        <mxCell id="hrEoVn3MDDSSl_XmKIdN-24" value="" style="endArrow=classic;html=1;rounded=0;exitX=1;exitY=1;exitDx=0;exitDy=0;" edge="1" parent="1" source="hrEoVn3MDDSSl_XmKIdN-13">
          <mxGeometry width="50" height="50" relative="1" as="geometry">
            <mxPoint x="420" y="370" as="sourcePoint" />
            <mxPoint x="690" y="500" as="targetPoint" />
            <Array as="points">
              <mxPoint x="670" y="440" />
            </Array>
          </mxGeometry>
        </mxCell>
        <mxCell id="hrEoVn3MDDSSl_XmKIdN-25" value="" style="ellipse;whiteSpace=wrap;html=1;rounded=0;" vertex="1" parent="1">
          <mxGeometry x="660" y="500" width="120" height="80" as="geometry" />
        </mxCell>
        <mxCell id="hrEoVn3MDDSSl_XmKIdN-26" value="" style="endArrow=classic;html=1;rounded=0;exitX=-0.033;exitY=0.413;exitDx=0;exitDy=0;exitPerimeter=0;entryX=1;entryY=1;entryDx=0;entryDy=0;" edge="1" parent="1" source="hrEoVn3MDDSSl_XmKIdN-25" target="hrEoVn3MDDSSl_XmKIdN-15">
          <mxGeometry width="50" height="50" relative="1" as="geometry">
            <mxPoint x="420" y="370" as="sourcePoint" />
            <mxPoint x="470" y="320" as="targetPoint" />
          </mxGeometry>
        </mxCell>
        <mxCell id="hrEoVn3MDDSSl_XmKIdN-27" value="" style="ellipse;whiteSpace=wrap;html=1;rounded=0;" vertex="1" parent="1">
          <mxGeometry x="320" y="560" width="120" height="80" as="geometry" />
        </mxCell>
        <mxCell id="hrEoVn3MDDSSl_XmKIdN-28" value="" style="endArrow=classic;html=1;rounded=0;exitX=0.5;exitY=1;exitDx=0;exitDy=0;" edge="1" parent="1" source="hrEoVn3MDDSSl_XmKIdN-15" target="hrEoVn3MDDSSl_XmKIdN-27">
          <mxGeometry width="50" height="50" relative="1" as="geometry">
            <mxPoint x="420" y="370" as="sourcePoint" />
            <mxPoint x="470" y="320" as="targetPoint" />
          </mxGeometry>
        </mxCell>
        <mxCell id="hrEoVn3MDDSSl_XmKIdN-29" value="" style="endArrow=classic;html=1;rounded=0;" edge="1" parent="1" source="hrEoVn3MDDSSl_XmKIdN-27" target="hrEoVn3MDDSSl_XmKIdN-17">
          <mxGeometry width="50" height="50" relative="1" as="geometry">
            <mxPoint x="420" y="370" as="sourcePoint" />
            <mxPoint x="470" y="320" as="targetPoint" />
          </mxGeometry>
        </mxCell>
        <mxCell id="hrEoVn3MDDSSl_XmKIdN-52" value="10 sec" style="text;html=1;strokeColor=none;fillColor=none;align=center;verticalAlign=middle;whiteSpace=wrap;rounded=0;rotation=-15;" vertex="1" parent="1">
          <mxGeometry x="240" y="260" width="50" height="30" as="geometry" />
        </mxCell>
        <mxCell id="hrEoVn3MDDSSl_XmKIdN-53" value="10 sec" style="text;html=1;strokeColor=none;fillColor=none;align=center;verticalAlign=middle;whiteSpace=wrap;rounded=0;rotation=30;" vertex="1" parent="1">
          <mxGeometry x="430" y="290" width="50" height="30" as="geometry" />
        </mxCell>
        <mxCell id="hrEoVn3MDDSSl_XmKIdN-54" value="10 sec" style="text;html=1;strokeColor=none;fillColor=none;align=center;verticalAlign=middle;whiteSpace=wrap;rounded=0;rotation=-60;" vertex="1" parent="1">
          <mxGeometry x="500.45" y="370" width="50" height="35.96" as="geometry" />
        </mxCell>
        <mxCell id="hrEoVn3MDDSSl_XmKIdN-57" value="10 sec" style="text;html=1;strokeColor=none;fillColor=none;align=center;verticalAlign=middle;whiteSpace=wrap;rounded=0;rotation=0;" vertex="1" parent="1">
          <mxGeometry x="364.00113676004423" y="420.00063509461097" width="50" height="35.96" as="geometry" />
        </mxCell>
        <mxCell id="hrEoVn3MDDSSl_XmKIdN-58" value="10 sec" style="text;html=1;strokeColor=none;fillColor=none;align=center;verticalAlign=middle;whiteSpace=wrap;rounded=0;rotation=15;" vertex="1" parent="1">
          <mxGeometry x="320.29" y="327.8" width="20" height="45.96" as="geometry" />
        </mxCell>
        <mxCell id="hrEoVn3MDDSSl_XmKIdN-59" value="knop ingedrukt&lt;br&gt;+&lt;br&gt;10 sec" style="text;html=1;strokeColor=none;fillColor=none;align=center;verticalAlign=middle;whiteSpace=wrap;rounded=0;" vertex="1" parent="1">
          <mxGeometry x="450" y="150" width="60" height="30" as="geometry" />
        </mxCell>
        <mxCell id="hrEoVn3MDDSSl_XmKIdN-60" value="knop ingedrukt&lt;br&gt;+&lt;br&gt;10 sec" style="text;html=1;strokeColor=none;fillColor=none;align=center;verticalAlign=middle;whiteSpace=wrap;rounded=0;" vertex="1" parent="1">
          <mxGeometry x="690" y="400" width="60" height="30" as="geometry" />
        </mxCell>
        <mxCell id="hrEoVn3MDDSSl_XmKIdN-61" value="knop ingedrukt&lt;br&gt;+&lt;br&gt;10 sec" style="text;html=1;strokeColor=none;fillColor=none;align=center;verticalAlign=middle;whiteSpace=wrap;rounded=0;" vertex="1" parent="1">
          <mxGeometry x="490" y="540" width="60" height="30" as="geometry" />
        </mxCell>
        <mxCell id="hrEoVn3MDDSSl_XmKIdN-63" value="knop ingedrukt&lt;br&gt;+&lt;br&gt;10 sec" style="text;html=1;strokeColor=none;fillColor=none;align=center;verticalAlign=middle;whiteSpace=wrap;rounded=0;" vertex="1" parent="1">
          <mxGeometry x="140" y="375.96000000000004" width="60" height="30" as="geometry" />
        </mxCell>
        <mxCell id="hrEoVn3MDDSSl_XmKIdN-65" value="10 sec" style="text;html=1;strokeColor=none;fillColor=none;align=center;verticalAlign=middle;whiteSpace=wrap;rounded=0;rotation=15;" vertex="1" parent="1">
          <mxGeometry x="620.0004313337645" y="239.99936352189903" width="50" height="30" as="geometry" />
        </mxCell>
        <mxCell id="hrEoVn3MDDSSl_XmKIdN-66" value="10 sec" style="text;html=1;strokeColor=none;fillColor=none;align=center;verticalAlign=middle;whiteSpace=wrap;rounded=0;rotation=15;" vertex="1" parent="1">
          <mxGeometry x="600.0004313337645" y="486.99936352189906" width="50" height="30" as="geometry" />
        </mxCell>
        <mxCell id="hrEoVn3MDDSSl_XmKIdN-67" value="10 sec" style="text;html=1;strokeColor=none;fillColor=none;align=center;verticalAlign=middle;whiteSpace=wrap;rounded=0;rotation=0;" vertex="1" parent="1">
          <mxGeometry x="275.00043133376454" y="539.999363521899" width="50" height="30" as="geometry" />
        </mxCell>
        <mxCell id="hrEoVn3MDDSSl_XmKIdN-74" value="voetpad + 4 + 5 groen,&lt;br&gt;rest rood" style="text;html=1;strokeColor=none;fillColor=none;align=center;verticalAlign=middle;whiteSpace=wrap;rounded=0;" vertex="1" parent="1">
          <mxGeometry x="350" y="585" width="60" height="30" as="geometry" />
        </mxCell>
        <mxCell id="hrEoVn3MDDSSl_XmKIdN-75" value="voetpad + 4 + 5 groen,&lt;br&gt;rest rood" style="text;html=1;strokeColor=none;fillColor=none;align=center;verticalAlign=middle;whiteSpace=wrap;rounded=0;" vertex="1" parent="1">
          <mxGeometry x="690" y="525" width="60" height="30" as="geometry" />
        </mxCell>
        <mxCell id="hrEoVn3MDDSSl_XmKIdN-76" value="voetpad + 4 + 5 groen,&lt;br&gt;rest rood" style="text;html=1;strokeColor=none;fillColor=none;align=center;verticalAlign=middle;whiteSpace=wrap;rounded=0;" vertex="1" parent="1">
          <mxGeometry x="588.03" y="175" width="60" height="10" as="geometry" />
        </mxCell>
        <mxCell id="hrEoVn3MDDSSl_XmKIdN-77" value="voetpad + 4 + 5 groen,&lt;br&gt;rest rood" style="text;html=1;strokeColor=none;fillColor=none;align=center;verticalAlign=middle;whiteSpace=wrap;rounded=0;" vertex="1" parent="1">
          <mxGeometry x="130" y="275" width="60" height="30" as="geometry" />
        </mxCell>
        <mxCell id="hrEoVn3MDDSSl_XmKIdN-78" value="&amp;nbsp;1.6.5&lt;br&gt;groen&lt;br&gt;+&lt;br&gt;rest rood" style="text;html=1;strokeColor=none;fillColor=none;align=center;verticalAlign=middle;whiteSpace=wrap;rounded=0;" vertex="1" parent="1">
          <mxGeometry x="565" y="315" width="60" height="30" as="geometry" />
        </mxCell>
        <mxCell id="hrEoVn3MDDSSl_XmKIdN-79" value="1.2.3&lt;br&gt;groen&lt;br&gt;+&lt;br&gt;rest rood" style="text;html=1;strokeColor=none;fillColor=none;align=center;verticalAlign=middle;whiteSpace=wrap;rounded=0;" vertex="1" parent="1">
          <mxGeometry x="480" y="430" width="60" height="60" as="geometry" />
        </mxCell>
        <mxCell id="hrEoVn3MDDSSl_XmKIdN-80" value="&lt;br&gt;4.5.3&lt;br&gt;groen&lt;br&gt;+&lt;br&gt;rest rood" style="text;html=1;strokeColor=none;fillColor=none;align=center;verticalAlign=middle;whiteSpace=wrap;rounded=0;" vertex="1" parent="1">
          <mxGeometry x="230" y="445" width="60" height="30" as="geometry" />
        </mxCell>
        <mxCell id="hrEoVn3MDDSSl_XmKIdN-81" value="1.3.5 groen&lt;br&gt;+&lt;br&gt;rest rood" style="text;html=1;strokeColor=none;fillColor=none;align=center;verticalAlign=middle;whiteSpace=wrap;rounded=0;" vertex="1" parent="1">
          <mxGeometry x="340" y="210" width="60" height="30" as="geometry" />
        </mxCell>
        <mxCell id="hrEoVn3MDDSSl_XmKIdN-82" value="" style="endArrow=classic;html=1;entryX=0;entryY=1;entryDx=0;entryDy=0;" edge="1" parent="1" target="hrEoVn3MDDSSl_XmKIdN-11">
          <mxGeometry width="50" height="50" relative="1" as="geometry">
            <mxPoint x="260" y="420" as="sourcePoint" />
            <mxPoint x="310" y="370" as="targetPoint" />
          </mxGeometry>
        </mxCell>
      </root>
    </mxGraphModel>
  </diagram>
</mxfile>
